<svg xmlns="http://www.w3.org/2000/svg" xmlns:xlink="http://www.w3.org/1999/xlink" width="2000" zoomAndPan="magnify" viewBox="0 0 1500 1499.999933" height="2000" preserveAspectRatio="xMidYMid meet" version="1.0"><defs><clipPath id="b89be9ae35"><path d="M 0 187.695312 L 374.871094 187.695312 L 374.871094 562.566406 L 0 562.566406 Z M 0 187.695312 " clip-rule="nonzero"/></clipPath><clipPath id="9b932a68ad"><path d="M 37.5 187.695312 L 337.371094 187.695312 C 358.082031 187.695312 374.871094 204.484375 374.871094 225.195312 L 374.871094 525.066406 C 374.871094 545.777344 358.082031 562.566406 337.371094 562.566406 L 37.5 562.566406 C 16.789062 562.566406 0 545.777344 0 525.066406 L 0 225.195312 C 0 204.484375 16.789062 187.695312 37.5 187.695312 Z M 37.5 187.695312 " clip-rule="nonzero"/></clipPath><clipPath id="41a07ca8ae"><path d="M 0 0.695312 L 374.871094 0.695312 L 374.871094 375.566406 L 0 375.566406 Z M 0 0.695312 " clip-rule="nonzero"/></clipPath><clipPath id="e2226cfed5"><path d="M 37.5 0.695312 L 337.371094 0.695312 C 358.082031 0.695312 374.871094 17.484375 374.871094 38.195312 L 374.871094 338.066406 C 374.871094 358.777344 358.082031 375.566406 337.371094 375.566406 L 37.5 375.566406 C 16.789062 375.566406 0 358.777344 0 338.066406 L 0 38.195312 C 0 17.484375 16.789062 0.695312 37.5 0.695312 Z M 37.5 0.695312 " clip-rule="nonzero"/></clipPath><clipPath id="179c97015e"><rect x="0" width="375" y="0" height="376"/></clipPath><clipPath id="3927b9fcb2"><path d="M 374.871094 187.695312 L 749.742188 187.695312 L 749.742188 562.566406 L 374.871094 562.566406 Z M 374.871094 187.695312 " clip-rule="nonzero"/></clipPath><clipPath id="4017336d69"><path d="M 412.371094 187.695312 L 712.242188 187.695312 C 732.949219 187.695312 749.742188 204.484375 749.742188 225.195312 L 749.742188 525.066406 C 749.742188 545.777344 732.949219 562.566406 712.242188 562.566406 L 412.371094 562.566406 C 391.660156 562.566406 374.871094 545.777344 374.871094 525.066406 L 374.871094 225.195312 C 374.871094 204.484375 391.660156 187.695312 412.371094 187.695312 Z M 412.371094 187.695312 " clip-rule="nonzero"/></clipPath><clipPath id="902ef6c0f7"><path d="M 0.871094 0.695312 L 375.742188 0.695312 L 375.742188 375.566406 L 0.871094 375.566406 Z M 0.871094 0.695312 " clip-rule="nonzero"/></clipPath><clipPath id="547b1318f0"><path d="M 38.371094 0.695312 L 338.242188 0.695312 C 358.949219 0.695312 375.742188 17.484375 375.742188 38.195312 L 375.742188 338.066406 C 375.742188 358.777344 358.949219 375.566406 338.242188 375.566406 L 38.371094 375.566406 C 17.660156 375.566406 0.871094 358.777344 0.871094 338.066406 L 0.871094 38.195312 C 0.871094 17.484375 17.660156 0.695312 38.371094 0.695312 Z M 38.371094 0.695312 " clip-rule="nonzero"/></clipPath><clipPath id="00f8851f84"><rect x="0" width="376" y="0" height="376"/></clipPath><clipPath id="7a29031b22"><path d="M 374.871094 187.695312 L 641.628906 187.695312 L 641.628906 562.566406 L 374.871094 562.566406 Z M 374.871094 187.695312 " clip-rule="nonzero"/></clipPath><clipPath id="ecb876a17e"><path d="M 0.871094 0.695312 L 267.628906 0.695312 L 267.628906 375.566406 L 0.871094 375.566406 Z M 0.871094 0.695312 " clip-rule="nonzero"/></clipPath><clipPath id="ec4c57c352"><rect x="0" width="268" y="0" height="376"/></clipPath><clipPath id="0d655bf80f"><path d="M 108.113281 187.695312 L 374.871094 187.695312 L 374.871094 562.566406 L 108.113281 562.566406 Z M 108.113281 187.695312 " clip-rule="nonzero"/></clipPath><clipPath id="64e317d9a8"><path d="M 0.113281 0.695312 L 266.871094 0.695312 L 266.871094 375.566406 L 0.113281 375.566406 Z M 0.113281 0.695312 " clip-rule="nonzero"/></clipPath><clipPath id="2959630af4"><rect x="0" width="267" y="0" height="376"/></clipPath><clipPath id="7c0a77ee5b"><path d="M 374.871094 562.554688 L 749.742188 562.554688 L 749.742188 937.425781 L 374.871094 937.425781 Z M 374.871094 562.554688 " clip-rule="nonzero"/></clipPath><clipPath id="6517151739"><path d="M 374.871094 899.925781 L 374.871094 600.054688 C 374.871094 579.34375 391.660156 562.554688 412.371094 562.554688 L 712.242188 562.554688 C 732.949219 562.554688 749.742188 579.34375 749.742188 600.054688 L 749.742188 899.925781 C 749.742188 920.636719 732.949219 937.425781 712.242188 937.425781 L 412.371094 937.425781 C 391.660156 937.425781 374.871094 920.636719 374.871094 899.925781 Z M 374.871094 899.925781 " clip-rule="nonzero"/></clipPath><clipPath id="c7d1bb6236"><path d="M 0.871094 0.554688 L 375.742188 0.554688 L 375.742188 375.425781 L 0.871094 375.425781 Z M 0.871094 0.554688 " clip-rule="nonzero"/></clipPath><clipPath id="d24996bf54"><path d="M 0.871094 337.925781 L 0.871094 38.054688 C 0.871094 17.34375 17.660156 0.554688 38.371094 0.554688 L 338.242188 0.554688 C 358.949219 0.554688 375.742188 17.34375 375.742188 38.054688 L 375.742188 337.925781 C 375.742188 358.636719 358.949219 375.425781 338.242188 375.425781 L 38.371094 375.425781 C 17.660156 375.425781 0.871094 358.636719 0.871094 337.925781 Z M 0.871094 337.925781 " clip-rule="nonzero"/></clipPath><clipPath id="5898602a20"><rect x="0" width="376" y="0" height="376"/></clipPath><clipPath id="a698d2bd55"><path d="M 374.875 562.558594 L 749.746094 562.558594 L 749.746094 829.316406 L 374.875 829.316406 Z M 374.875 562.558594 " clip-rule="nonzero"/></clipPath><clipPath id="2d51bf83f6"><path d="M 0.875 0.558594 L 375.746094 0.558594 L 375.746094 267.316406 L 0.875 267.316406 Z M 0.875 0.558594 " clip-rule="nonzero"/></clipPath><clipPath id="fe05210f88"><rect x="0" width="376" y="0" height="268"/></clipPath><clipPath id="2d7f9081d6"><path d="M 374.871094 375.128906 L 749.742188 375.128906 L 749.742188 562.566406 L 374.871094 562.566406 Z M 374.871094 375.128906 " clip-rule="nonzero"/></clipPath><clipPath id="6ce949f7ca"><path d="M 0.871094 0.128906 L 375.742188 0.128906 L 375.742188 187.566406 L 0.871094 187.566406 Z M 0.871094 0.128906 " clip-rule="nonzero"/></clipPath><clipPath id="0c08dbf682"><rect x="0" width="376" y="0" height="188"/></clipPath><clipPath id="cdef6ef18a"><path d="M 749.742188 562.566406 L 1125.128906 562.566406 L 1125.128906 937.433594 L 749.742188 937.433594 Z M 749.742188 562.566406 " clip-rule="nonzero"/></clipPath><clipPath id="c771fecbad"><path d="M 0.742188 0.566406 L 376 0.566406 L 376 375.433594 L 0.742188 375.433594 Z M 0.742188 0.566406 " clip-rule="nonzero"/></clipPath><clipPath id="541e8ebf9f"><rect x="0" width="377" y="0" height="376"/></clipPath><clipPath id="d5cc86ec71"><path d="M 482.984375 562.566406 L 749.742188 562.566406 L 749.742188 937.433594 L 482.984375 937.433594 Z M 482.984375 562.566406 " clip-rule="nonzero"/></clipPath><clipPath id="c8ea6f12d4"><path d="M 0.984375 0.566406 L 267.742188 0.566406 L 267.742188 375.433594 L 0.984375 375.433594 Z M 0.984375 0.566406 " clip-rule="nonzero"/></clipPath><clipPath id="08e32af901"><rect x="0" width="268" y="0" height="376"/></clipPath><clipPath id="f59e9e2293"><path d="M 750.257812 937.425781 L 1125.128906 937.425781 L 1125.128906 1312.292969 L 750.257812 1312.292969 Z M 750.257812 937.425781 " clip-rule="nonzero"/></clipPath><clipPath id="a2b5a35b4e"><path d="M 750.257812 1274.792969 L 750.257812 974.925781 C 750.257812 954.214844 767.050781 937.425781 787.757812 937.425781 L 1087.628906 937.425781 C 1108.339844 937.425781 1125.128906 954.214844 1125.128906 974.925781 L 1125.128906 1274.792969 C 1125.128906 1295.503906 1108.339844 1312.292969 1087.628906 1312.292969 L 787.757812 1312.292969 C 767.050781 1312.292969 750.257812 1295.503906 750.257812 1274.792969 Z M 750.257812 1274.792969 " clip-rule="nonzero"/></clipPath><clipPath id="1500ed80c4"><path d="M 0.257812 0.425781 L 375.128906 0.425781 L 375.128906 375.292969 L 0.257812 375.292969 Z M 0.257812 0.425781 " clip-rule="nonzero"/></clipPath><clipPath id="52bd537e26"><path d="M 0.257812 337.792969 L 0.257812 37.925781 C 0.257812 17.214844 17.050781 0.425781 37.757812 0.425781 L 337.628906 0.425781 C 358.339844 0.425781 375.128906 17.214844 375.128906 37.925781 L 375.128906 337.792969 C 375.128906 358.503906 358.339844 375.292969 337.628906 375.292969 L 37.757812 375.292969 C 17.050781 375.292969 0.257812 358.503906 0.257812 337.792969 Z M 0.257812 337.792969 " clip-rule="nonzero"/></clipPath><clipPath id="76a85eddd7"><rect x="0" width="376" y="0" height="376"/></clipPath><clipPath id="a344ce2ba2"><path d="M 750.257812 937.433594 L 1125.128906 937.433594 L 1125.128906 1124.871094 L 750.257812 1124.871094 Z M 750.257812 937.433594 " clip-rule="nonzero"/></clipPath><clipPath id="9bf01e0d9a"><path d="M 0.257812 0.433594 L 375.128906 0.433594 L 375.128906 187.871094 L 0.257812 187.871094 Z M 0.257812 0.433594 " clip-rule="nonzero"/></clipPath><clipPath id="4e55ffec4e"><rect x="0" width="376" y="0" height="188"/></clipPath><clipPath id="3b531756bd"><path d="M 1125.117188 562.554688 L 1499.988281 562.554688 L 1499.988281 937.425781 L 1125.117188 937.425781 Z M 1125.117188 562.554688 " clip-rule="nonzero"/></clipPath><clipPath id="7569aa021c"><path d="M 1462.488281 937.425781 L 1162.617188 937.425781 C 1141.910156 937.425781 1125.117188 920.636719 1125.117188 899.925781 L 1125.117188 600.054688 C 1125.117188 579.34375 1141.910156 562.554688 1162.617188 562.554688 L 1462.488281 562.554688 C 1483.199219 562.554688 1499.988281 579.34375 1499.988281 600.054688 L 1499.988281 899.925781 C 1499.988281 920.636719 1483.199219 937.425781 1462.488281 937.425781 Z M 1462.488281 937.425781 " clip-rule="nonzero"/></clipPath><clipPath id="d378bda881"><path d="M 0.117188 0.554688 L 374.988281 0.554688 L 374.988281 375.425781 L 0.117188 375.425781 Z M 0.117188 0.554688 " clip-rule="nonzero"/></clipPath><clipPath id="9cd2d91ada"><path d="M 337.488281 375.425781 L 37.617188 375.425781 C 16.910156 375.425781 0.117188 358.636719 0.117188 337.925781 L 0.117188 38.054688 C 0.117188 17.34375 16.910156 0.554688 37.617188 0.554688 L 337.488281 0.554688 C 358.199219 0.554688 374.988281 17.34375 374.988281 38.054688 L 374.988281 337.925781 C 374.988281 358.636719 358.199219 375.425781 337.488281 375.425781 Z M 337.488281 375.425781 " clip-rule="nonzero"/></clipPath><clipPath id="8d72670a74"><rect x="0" width="375" y="0" height="376"/></clipPath><clipPath id="666013c05a"><path d="M 1125.128906 562.558594 L 1312.5625 562.558594 L 1312.5625 937.425781 L 1125.128906 937.425781 Z M 1125.128906 562.558594 " clip-rule="nonzero"/></clipPath><clipPath id="06d2b2fa6b"><path d="M 0.128906 0.558594 L 187.5625 0.558594 L 187.5625 375.425781 L 0.128906 375.425781 Z M 0.128906 0.558594 " clip-rule="nonzero"/></clipPath><clipPath id="628c19ae23"><rect x="0" width="188" y="0" height="376"/></clipPath></defs><g clip-path="url(#b89be9ae35)"><g clip-path="url(#9b932a68ad)"><g transform="matrix(1, 0, 0, 1, 0, 187)"><g clip-path="url(#179c97015e)"><g clip-path="url(#41a07ca8ae)"><g clip-path="url(#e2226cfed5)"><path fill="#36d6fd" d="M 0 0.695312 L 374.871094 0.695312 L 374.871094 375.566406 L 0 375.566406 Z M 0 0.695312 " fill-opacity="1" fill-rule="nonzero"/></g></g></g></g></g></g><g clip-path="url(#3927b9fcb2)"><g clip-path="url(#4017336d69)"><g transform="matrix(1, 0, 0, 1, 374, 187)"><g clip-path="url(#00f8851f84)"><g clip-path="url(#902ef6c0f7)"><g clip-path="url(#547b1318f0)"><path fill="#00b6fe" d="M 0.871094 0.695312 L 375.742188 0.695312 L 375.742188 375.566406 L 0.871094 375.566406 Z M 0.871094 0.695312 " fill-opacity="1" fill-rule="nonzero"/></g></g></g></g></g></g><g clip-path="url(#7a29031b22)"><g transform="matrix(1, 0, 0, 1, 374, 187)"><g clip-path="url(#ec4c57c352)"><g clip-path="url(#ecb876a17e)"><path fill="#00b6fe" d="M 0.871094 0.695312 L 267.628906 0.695312 L 267.628906 375.820312 L 0.871094 375.820312 Z M 0.871094 0.695312 " fill-opacity="1" fill-rule="nonzero"/></g></g></g></g><g clip-path="url(#0d655bf80f)"><g transform="matrix(1, 0, 0, 1, 108, 187)"><g clip-path="url(#2959630af4)"><g clip-path="url(#64e317d9a8)"><path fill="#36d6fd" d="M 0.113281 0.695312 L 266.871094 0.695312 L 266.871094 375.820312 L 0.113281 375.820312 Z M 0.113281 0.695312 " fill-opacity="1" fill-rule="nonzero"/></g></g></g></g><g clip-path="url(#7c0a77ee5b)"><g clip-path="url(#6517151739)"><g transform="matrix(1, 0, 0, 1, 374, 562)"><g clip-path="url(#5898602a20)"><g clip-path="url(#c7d1bb6236)"><g clip-path="url(#d24996bf54)"><path fill="#36d6fd" d="M 0.871094 375.425781 L 0.871094 0.554688 L 375.742188 0.554688 L 375.742188 375.425781 Z M 0.871094 375.425781 " fill-opacity="1" fill-rule="nonzero"/></g></g></g></g></g></g><g clip-path="url(#a698d2bd55)"><g transform="matrix(1, 0, 0, 1, 374, 562)"><g clip-path="url(#fe05210f88)"><g clip-path="url(#2d51bf83f6)"><path fill="#36d6fd" d="M 0.875 267.316406 L 0.875 0.558594 L 376 0.558594 L 376 267.316406 Z M 0.875 267.316406 " fill-opacity="1" fill-rule="nonzero"/></g></g></g></g><g clip-path="url(#2d7f9081d6)"><g transform="matrix(1, 0, 0, 1, 374, 375)"><g clip-path="url(#0c08dbf682)"><g clip-path="url(#6ce949f7ca)"><path fill="#00b6fe" d="M 0.871094 0.128906 L 375.742188 0.128906 L 375.742188 187.566406 L 0.871094 187.566406 Z M 0.871094 0.128906 " fill-opacity="1" fill-rule="nonzero"/></g></g></g></g><g clip-path="url(#cdef6ef18a)"><g transform="matrix(1, 0, 0, 1, 749, 562)"><g clip-path="url(#541e8ebf9f)"><g clip-path="url(#c771fecbad)"><path fill="#1854fc" d="M 0.742188 0.566406 L 375.609375 0.566406 L 375.609375 375.433594 L 0.742188 375.433594 Z M 0.742188 0.566406 " fill-opacity="1" fill-rule="nonzero"/></g></g></g></g><g clip-path="url(#d5cc86ec71)"><g transform="matrix(1, 0, 0, 1, 482, 562)"><g clip-path="url(#08e32af901)"><g clip-path="url(#c8ea6f12d4)"><path fill="#36d6fd" d="M 0.984375 0.566406 L 267.742188 0.566406 L 267.742188 375.691406 L 0.984375 375.691406 Z M 0.984375 0.566406 " fill-opacity="1" fill-rule="nonzero"/></g></g></g></g><g clip-path="url(#f59e9e2293)"><g clip-path="url(#a2b5a35b4e)"><g transform="matrix(1, 0, 0, 1, 750, 937)"><g clip-path="url(#76a85eddd7)"><g clip-path="url(#1500ed80c4)"><g clip-path="url(#52bd537e26)"><path fill="#3e74fa" d="M 0.257812 375.292969 L 0.257812 0.425781 L 375.128906 0.425781 L 375.128906 375.292969 Z M 0.257812 375.292969 " fill-opacity="1" fill-rule="nonzero"/></g></g></g></g></g></g><g clip-path="url(#a344ce2ba2)"><g transform="matrix(1, 0, 0, 1, 750, 937)"><g clip-path="url(#4e55ffec4e)"><g clip-path="url(#9bf01e0d9a)"><path fill="#3e74fa" d="M 0.257812 0.433594 L 375.128906 0.433594 L 375.128906 187.871094 L 0.257812 187.871094 Z M 0.257812 0.433594 " fill-opacity="1" fill-rule="nonzero"/></g></g></g></g><g clip-path="url(#3b531756bd)"><g clip-path="url(#7569aa021c)"><g transform="matrix(1, 0, 0, 1, 1125, 562)"><g clip-path="url(#8d72670a74)"><g clip-path="url(#d378bda881)"><g clip-path="url(#9cd2d91ada)"><path fill="#3e74fa" d="M 374.988281 375.425781 L 0.117188 375.425781 L 0.117188 0.554688 L 374.988281 0.554688 Z M 374.988281 375.425781 " fill-opacity="1" fill-rule="nonzero"/></g></g></g></g></g></g><g clip-path="url(#666013c05a)"><g transform="matrix(1, 0, 0, 1, 1125, 562)"><g clip-path="url(#628c19ae23)"><g clip-path="url(#06d2b2fa6b)"><path fill="#3e74fa" d="M 0.128906 375.425781 L 0.128906 0.558594 L 187.5625 0.558594 L 187.5625 375.425781 Z M 0.128906 375.425781 " fill-opacity="1" fill-rule="nonzero"/></g></g></g></g></svg>